<svg xmlns="http://www.w3.org/2000/svg" width="512" height="512" viewBox="0 0 512 512">
  <defs>
    <linearGradient id="bg" x1="0" y1="0" x2="1" y2="1">
      <stop offset="0" stop-color="#152433"/>
      <stop offset="1" stop-color="#08131d"/>
    </linearGradient>
    <linearGradient id="gold" x1="0" y1="0" x2="0" y2="1">
      <stop offset="0" stop-color="#ffd873"/>
      <stop offset="1" stop-color="#d89a26"/>
    </linearGradient>
  </defs>
  <rect x="12" y="12" width="488" height="488" rx="112" fill="url(#bg)"/>
  <rect x="22" y="22" width="468" height="468" rx="102" fill="none" stroke="#28445a" stroke-width="8"/>
  <!-- bottle -->
  <path d="M181 92h76v55c0 15 6 26 18 37 25 24 38 55 38 91v123c0 27-22 49-49 49H174c-27 0-49-22-49-49V275c0-36 13-67 38-91 12-11 18-22 18-37V92z" fill="url(#gold)"/>
  <rect x="174" y="68" width="90" height="42" rx="14" fill="#f6c34d"/>
  <rect x="145" y="240" width="148" height="116" rx="20" fill="#f6f0dd"/>
  <path d="M173 278h92M173 310h64" stroke="#173047" stroke-width="17" stroke-linecap="round"/>
  <!-- POS check badge -->
  <circle cx="348" cy="348" r="91" fill="#20b8a6" stroke="#0b1b25" stroke-width="15"/>
  <path d="M303 348l29 30 62-69" fill="none" stroke="#fff" stroke-width="25" stroke-linecap="round" stroke-linejoin="round"/>
</svg>
